<svg xmlns="http://www.w3.org/2000/svg" version="1.1" xmlns:xlink="http://www.w3.org/1999/xlink" xmlns:svgjs="http://svgjs.dev/svgjs" width="1440" height="560" preserveAspectRatio="none" viewBox="0 0 1440 560"><g mask="url(&quot;#SvgjsMask1346&quot;)" fill="none"><path d="M0.52 -40.03L46.42 -13.53L46.42 39.47L0.52 65.97L-45.38 39.47L-45.38 -13.53zM46.42 357.47L92.32 383.97L92.32 436.97L46.42 463.47L0.52 436.97L0.52 383.97zM92.32 -40.03L138.22 -13.53L138.22 39.47L92.32 65.97L46.42 39.47L46.42 -13.53zM92.32 277.97L138.22 304.47L138.22 357.47L92.32 383.97L46.42 357.47L46.42 304.47zM138.22 357.47L184.12 383.97L184.12 436.97L138.22 463.47L92.32 436.97L92.32 383.97zM138.22 516.47L184.12 542.97L184.12 595.97L138.22 622.47L92.32 595.97L92.32 542.97zM230.02 516.47L275.92 542.97L275.92 595.97L230.02 622.47L184.12 595.97L184.12 542.97zM275.92 436.97L321.82 463.47L321.82 516.47L275.92 542.97L230.02 516.47L230.02 463.47zM367.73 118.97L413.63 145.47L413.63 198.47L367.73 224.97L321.82 198.47L321.82 145.47zM413.63 198.47L459.53 224.97L459.53 277.97L413.63 304.47L367.73 277.97L367.73 224.97zM413.63 516.47L459.53 542.97L459.53 595.97L413.63 622.47L367.73 595.97L367.73 542.97zM505.43 39.47L551.33 65.97L551.33 118.97L505.43 145.47L459.53 118.97L459.53 65.97zM505.43 198.47L551.33 224.97L551.33 277.97L505.43 304.47L459.53 277.97L459.53 224.97zM643.13 -40.03L689.03 -13.53L689.03 39.47L643.13 65.97L597.23 39.47L597.23 -13.53zM643.13 277.97L689.03 304.47L689.03 357.47L643.13 383.97L597.23 357.47L597.23 304.47zM734.93 118.97L780.83 145.47L780.83 198.47L734.93 224.97L689.03 198.47L689.03 145.47zM872.63 39.47L918.53 65.97L918.53 118.97L872.63 145.47L826.73 118.97L826.73 65.97zM826.73 118.97L872.63 145.47L872.63 198.47L826.73 224.97L780.83 198.47L780.83 145.47zM872.63 198.47L918.53 224.97L918.53 277.97L872.63 304.47L826.73 277.97L826.73 224.97zM964.43 516.47L1010.33 542.97L1010.33 595.97L964.43 622.47L918.53 595.97L918.53 542.97zM1010.33 -40.03L1056.23 -13.53L1056.23 39.47L1010.33 65.97L964.43 39.47L964.43 -13.53zM1010.33 118.97L1056.23 145.47L1056.23 198.47L1010.33 224.97L964.43 198.47L964.43 145.47zM1056.23 357.47L1102.14 383.97L1102.14 436.97L1056.23 463.47L1010.33 436.97L1010.33 383.97zM1010.33 436.97L1056.23 463.47L1056.23 516.47L1010.33 542.97L964.43 516.47L964.43 463.47zM1148.04 39.47L1193.94 65.97L1193.94 118.97L1148.04 145.47L1102.14 118.97L1102.14 65.97zM1148.04 357.47L1193.94 383.97L1193.94 436.97L1148.04 463.47L1102.14 436.97L1102.14 383.97zM1193.94 -40.03L1239.84 -13.53L1239.84 39.47L1193.94 65.97L1148.04 39.47L1148.04 -13.53zM1239.84 198.47L1285.74 224.97L1285.74 277.97L1239.84 304.47L1193.94 277.97L1193.94 224.97zM1331.64 39.47L1377.54 65.97L1377.54 118.97L1331.64 145.47L1285.74 118.97L1285.74 65.97zM1331.64 357.47L1377.54 383.97L1377.54 436.97L1331.64 463.47L1285.74 436.97L1285.74 383.97zM1423.44 357.47L1469.34 383.97L1469.34 436.97L1423.44 463.47L1377.54 436.97L1377.54 383.97z" stroke="rgba(235, 9, 9, 0.4)" stroke-width="2"></path><path d="M41.28 188.26L81.12 211.26L81.12 257.26L41.28 280.26L1.44 257.26L1.44 211.26zM200.63 50.26L240.47 73.26L240.47 119.26L200.63 142.26L160.79 119.26L160.79 73.26zM200.63 464.26L240.47 487.26L240.47 533.26L200.63 556.26L160.79 533.26L160.79 487.26zM280.31 50.26L320.15 73.26L320.15 119.26L280.31 142.26L240.47 119.26L240.47 73.26zM320.15 257.26L359.98 280.26L359.98 326.26L320.15 349.26L280.31 326.26L280.31 280.26zM320.15 533.26L359.98 556.26L359.98 602.26L320.15 625.26L280.31 602.26L280.31 556.26zM439.66 326.26L479.5 349.26L479.5 395.26L439.66 418.26L399.82 395.26L399.82 349.26zM519.34 188.26L559.18 211.26L559.18 257.26L519.34 280.26L479.5 257.26L479.5 211.26zM559.18 -18.74L599.01 4.26L599.01 50.26L559.18 73.26L519.34 50.26L519.34 4.26zM599.01 464.26L638.85 487.26L638.85 533.26L599.01 556.26L559.18 533.26L559.18 487.26zM638.85 257.26L678.69 280.26L678.69 326.26L638.85 349.26L599.01 326.26L599.01 280.26zM678.69 464.26L718.53 487.26L718.53 533.26L678.69 556.26L638.85 533.26L638.85 487.26zM638.85 533.26L678.69 556.26L678.69 602.26L638.85 625.26L599.01 602.26L599.01 556.26zM718.53 395.26L758.37 418.26L758.37 464.26L718.53 487.26L678.69 464.26L678.69 418.26zM798.21 119.26L838.04 142.26L838.04 188.26L798.21 211.26L758.37 188.26L758.37 142.26zM838.04 326.26L877.88 349.26L877.88 395.26L838.04 418.26L798.21 395.26L798.21 349.26zM798.21 395.26L838.04 418.26L838.04 464.26L798.21 487.26L758.37 464.26L758.37 418.26zM877.88 119.26L917.72 142.26L917.72 188.26L877.88 211.26L838.04 188.26L838.04 142.26zM917.72 326.26L957.56 349.26L957.56 395.26L917.72 418.26L877.88 395.26L877.88 349.26zM997.4 326.26L1037.24 349.26L1037.24 395.26L997.4 418.26L957.56 395.26L957.56 349.26zM997.4 464.26L1037.24 487.26L1037.24 533.26L997.4 556.26L957.56 533.26L957.56 487.26zM1037.24 395.26L1077.07 418.26L1077.07 464.26L1037.24 487.26L997.4 464.26L997.4 418.26zM1037.24 533.26L1077.07 556.26L1077.07 602.26L1037.24 625.26L997.4 602.26L997.4 556.26zM1156.75 188.26L1196.59 211.26L1196.59 257.26L1156.75 280.26L1116.91 257.26L1116.91 211.26zM1116.91 395.26L1156.75 418.26L1156.75 464.26L1116.91 487.26L1077.07 464.26L1077.07 418.26zM1196.59 533.26L1236.43 556.26L1236.43 602.26L1196.59 625.26L1156.75 602.26L1156.75 556.26zM1316.1 50.26L1355.94 73.26L1355.94 119.26L1316.1 142.26L1276.27 119.26L1276.27 73.26zM1355.94 -18.74L1395.78 4.26L1395.78 50.26L1355.94 73.26L1316.1 50.26L1316.1 4.26zM1395.78 50.26L1435.62 73.26L1435.62 119.26L1395.78 142.26L1355.94 119.26L1355.94 73.26zM1435.62 119.26L1475.46 142.26L1475.46 188.26L1435.62 211.26L1395.78 188.26L1395.78 142.26z" stroke="#03305d" stroke-width="2"></path><path d="M57.85 45.01L104.61 72.01L104.61 126.01L57.85 153.01L11.08 126.01L11.08 72.01zM11.08 288.01L57.85 315.01L57.85 369.01L11.08 396.01L-35.69 369.01L-35.69 315.01zM11.08 450.01L57.85 477.01L57.85 531.01L11.08 558.01L-35.69 531.01L-35.69 477.01zM57.85 531.01L104.61 558.01L104.61 612.01L57.85 639.01L11.08 612.01L11.08 558.01zM151.38 45.01L198.15 72.01L198.15 126.01L151.38 153.01L104.61 126.01L104.61 72.01zM151.38 207.01L198.15 234.01L198.15 288.01L151.38 315.01L104.61 288.01L104.61 234.01zM151.38 369.01L198.15 396.01L198.15 450.01L151.38 477.01L104.61 450.01L104.61 396.01zM104.61 450.01L151.38 477.01L151.38 531.01L104.61 558.01L57.85 531.01L57.85 477.01zM151.38 531.01L198.15 558.01L198.15 612.01L151.38 639.01L104.61 612.01L104.61 558.01zM244.91 45.01L291.68 72.01L291.68 126.01L244.91 153.01L198.15 126.01L198.15 72.01zM198.15 126.01L244.91 153.01L244.91 207.01L198.15 234.01L151.38 207.01L151.38 153.01zM244.91 207.01L291.68 234.01L291.68 288.01L244.91 315.01L198.15 288.01L198.15 234.01zM198.15 450.01L244.91 477.01L244.91 531.01L198.15 558.01L151.38 531.01L151.38 477.01zM244.91 531.01L291.68 558.01L291.68 612.01L244.91 639.01L198.15 612.01L198.15 558.01zM291.68 -35.99L338.45 -8.99L338.45 45.01L291.68 72.01L244.91 45.01L244.91 -8.99zM338.45 45.01L385.21 72.01L385.21 126.01L338.45 153.01L291.68 126.01L291.68 72.01zM338.45 207.01L385.21 234.01L385.21 288.01L338.45 315.01L291.68 288.01L291.68 234.01zM385.21 126.01L431.98 153.01L431.98 207.01L385.21 234.01L338.45 207.01L338.45 153.01zM385.21 288.01L431.98 315.01L431.98 369.01L385.21 396.01L338.45 369.01L338.45 315.01zM478.75 -35.99L525.51 -8.99L525.51 45.01L478.75 72.01L431.98 45.01L431.98 -8.99zM525.51 45.01L572.28 72.01L572.28 126.01L525.51 153.01L478.75 126.01L478.75 72.01zM478.75 288.01L525.51 315.01L525.51 369.01L478.75 396.01L431.98 369.01L431.98 315.01zM525.51 369.01L572.28 396.01L572.28 450.01L525.51 477.01L478.75 450.01L478.75 396.01zM478.75 450.01L525.51 477.01L525.51 531.01L478.75 558.01L431.98 531.01L431.98 477.01zM572.28 -35.99L619.05 -8.99L619.05 45.01L572.28 72.01L525.51 45.01L525.51 -8.99zM619.05 207.01L665.81 234.01L665.81 288.01L619.05 315.01L572.28 288.01L572.28 234.01zM619.05 369.01L665.81 396.01L665.81 450.01L619.05 477.01L572.28 450.01L572.28 396.01zM665.81 126.01L712.58 153.01L712.58 207.01L665.81 234.01L619.05 207.01L619.05 153.01zM712.58 207.01L759.35 234.01L759.35 288.01L712.58 315.01L665.81 288.01L665.81 234.01zM665.81 288.01L712.58 315.01L712.58 369.01L665.81 396.01L619.05 369.01L619.05 315.01zM665.81 450.01L712.58 477.01L712.58 531.01L665.81 558.01L619.05 531.01L619.05 477.01zM712.58 531.01L759.35 558.01L759.35 612.01L712.58 639.01L665.81 612.01L665.81 558.01zM759.35 288.01L806.11 315.01L806.11 369.01L759.35 396.01L712.58 369.01L712.58 315.01zM759.35 450.01L806.11 477.01L806.11 531.01L759.35 558.01L712.58 531.01L712.58 477.01zM806.11 531.01L852.88 558.01L852.88 612.01L806.11 639.01L759.35 612.01L759.35 558.01zM852.88 -35.99L899.65 -8.99L899.65 45.01L852.88 72.01L806.11 45.01L806.11 -8.99zM852.88 126.01L899.65 153.01L899.65 207.01L852.88 234.01L806.11 207.01L806.11 153.01zM899.65 369.01L946.41 396.01L946.41 450.01L899.65 477.01L852.88 450.01L852.88 396.01zM852.88 450.01L899.65 477.01L899.65 531.01L852.88 558.01L806.11 531.01L806.11 477.01zM899.65 531.01L946.41 558.01L946.41 612.01L899.65 639.01L852.88 612.01L852.88 558.01zM946.41 -35.99L993.18 -8.99L993.18 45.01L946.41 72.01L899.65 45.01L899.65 -8.99zM993.18 45.01L1039.95 72.01L1039.95 126.01L993.18 153.01L946.41 126.01L946.41 72.01zM946.41 288.01L993.18 315.01L993.18 369.01L946.41 396.01L899.65 369.01L899.65 315.01zM993.18 369.01L1039.95 396.01L1039.95 450.01L993.18 477.01L946.41 450.01L946.41 396.01zM1086.71 45.01L1133.48 72.01L1133.48 126.01L1086.71 153.01L1039.95 126.01L1039.95 72.01zM1086.71 207.01L1133.48 234.01L1133.48 288.01L1086.71 315.01L1039.95 288.01L1039.95 234.01zM1086.71 369.01L1133.48 396.01L1133.48 450.01L1086.71 477.01L1039.95 450.01L1039.95 396.01zM1086.71 531.01L1133.48 558.01L1133.48 612.01L1086.71 639.01L1039.95 612.01L1039.95 558.01zM1133.48 126.01L1180.25 153.01L1180.25 207.01L1133.48 234.01L1086.71 207.01L1086.71 153.01zM1133.48 288.01L1180.25 315.01L1180.25 369.01L1133.48 396.01L1086.71 369.01L1086.71 315.01zM1180.25 369.01L1227.01 396.01L1227.01 450.01L1180.25 477.01L1133.48 450.01L1133.48 396.01zM1133.48 450.01L1180.25 477.01L1180.25 531.01L1133.48 558.01L1086.71 531.01L1086.71 477.01zM1180.25 531.01L1227.01 558.01L1227.01 612.01L1180.25 639.01L1133.48 612.01L1133.48 558.01zM1227.01 -35.99L1273.78 -8.99L1273.78 45.01L1227.01 72.01L1180.25 45.01L1180.25 -8.99zM1273.78 45.01L1320.55 72.01L1320.55 126.01L1273.78 153.01L1227.01 126.01L1227.01 72.01zM1273.78 207.01L1320.55 234.01L1320.55 288.01L1273.78 315.01L1227.01 288.01L1227.01 234.01zM1273.78 369.01L1320.55 396.01L1320.55 450.01L1273.78 477.01L1227.01 450.01L1227.01 396.01zM1320.55 -35.99L1367.31 -8.99L1367.31 45.01L1320.55 72.01L1273.78 45.01L1273.78 -8.99zM1367.31 45.01L1414.08 72.01L1414.08 126.01L1367.31 153.01L1320.55 126.01L1320.55 72.01zM1320.55 126.01L1367.31 153.01L1367.31 207.01L1320.55 234.01L1273.78 207.01L1273.78 153.01zM1367.31 369.01L1414.08 396.01L1414.08 450.01L1367.31 477.01L1320.55 450.01L1320.55 396.01zM1414.08 -35.99L1460.85 -8.99L1460.85 45.01L1414.08 72.01L1367.31 45.01L1367.31 -8.99zM1460.85 207.01L1507.61 234.01L1507.61 288.01L1460.85 315.01L1414.08 288.01L1414.08 234.01zM1460.85 369.01L1507.61 396.01L1507.61 450.01L1460.85 477.01L1414.08 450.01L1414.08 396.01z" stroke="rgba(6, 80, 156, 0.93)" stroke-width="2"></path></g><defs><mask id="SvgjsMask1346"><rect width="1440" height="560" fill="#ffffff"></rect></mask></defs></svg>